# xmcd
#
# Track frame offsets: 
#        150
#        11228
#        22390
#        37010
#        50752
#        62418
#        75269
#        87695
#        100464
#        113019
#        123736
#        137382
#        147708
#        159993
#        170393
#        183926
#        195503
#        209477
#        221111
#        233098
#        244139
#        256843
#        269635
#
# Disc length: 3745 seconds
#
# Revision: 0
# Processed by: cddbd v1.5.2PL0 Copyright (c) Steve Scherf et al.
# Submitted via: ExactAudioCopyFreeDBPlugin 1.0
#
DISCID=580e9f17
DTITLE=Various Artist - Rhythm and The Nasty Blues:  The Songs Your Par
DTITLE=ents Did Not Want You to Hear
DYEAR=2017
DGENRE=Risqué
TTITLE0=Shirley and Lee - Let the Good Times Roll
TTITLE1=The Bees - Toy Bell
TTITLE2=Dinah Washington with Cootie Wiliams' Orchestra - Long John Bl
TTITLE2=ues
TTITLE3=Dinah Washington - Big Long Slidin' Thing
TTITLE4=The Dominoes - Sixty-Minute Man
TTITLE5=The Royals (Hank Ballard and The Midnighters) - Work with Me Ann
TTITLE5=ie
TTITLE6=Eddie Davis with the Bill Doggett Trio - Mountain Oysters
TTITLE7=Etta James - Roll with Me Henry
TTITLE8=Wynonie Harris - Good Rockin' Tonight
TTITLE9=Shirley and Lee - I Feel Good
TTITLE10=Jesse Powell Orchestra with Fluffy Hunter - The Walkin' Blues
TTITLE10=(Walk Right In, Walk Right Out)
TTITLE11=Julia Lee and Her Boy Friends - My Man Stands Out
TTITLE12=Lucky Millinder and His Orchestra with Myra Johnson - Silent Ge
TTITLE12=orge
TTITLE13=Moose Jackson with Tiny Bradshaw's Orchestra - Big Ten-Inch  
TTITLE13=Record
TTITLE14=Wynonie Harris with Todd Rhodes' Orchestra - Keep on Churnin'
TTITLE15=Roy Brown and His Mighty Men - Butcher Pete, Part 1
TTITLE16=Joe Turner - Shake, Rattle and Roll
TTITLE17=The Sultans - Lemon Squeezing Daddy
TTITLE18=The Swallows - It Ain't the Meat
TTITLE19=The "5" Royales - Laundromat Blues
TTITLE20=Todd Rhodes and Orchestra with Connie Allen and the Band - Rocket
TTITLE20=69
TTITLE21=The Toppers - (I Love to Play Your Piano) Let Me Bang Your Bo
TTITLE21=x
TTITLE22=Wynonie Harris - Wasn't That Good
EXTD=
EXTT0=
EXTT1=
EXTT2=
EXTT3=
EXTT4=
EXTT5=
EXTT6=
EXTT7=
EXTT8=
EXTT9=
EXTT10=
EXTT11=
EXTT12=
EXTT13=
EXTT14=
EXTT15=
EXTT16=
EXTT17=
EXTT18=
EXTT19=
EXTT20=
EXTT21=
EXTT22=
PLAYORDER=
